# xmcd
#
# Track frame offsets:
#	183
#	24058
#	45258
#	113708
#	198208
#	269308
#	300370
#	334983
# Disc length: 4578 seconds
# Revision: 1
# Processed by: cddbd v1.5.1PL2 Copyright (c) Steve Scherf et al.
#
# Submitted via: libkcddb 0.31
#
DISCID=5811e008
DTITLE=Hâdra des Gnaoua d'Essaouira - Maroc - Musique rituelle
DYEAR=1993
DGENRE=Folklore
TTITLE0=Procession - Aâda
TTITLE1=Invocation - Rebbi Moulay
TTITLE2=Sacrifice - Nabi ya babi Llah
TTITLE3=Kouyou
TTITLE4=Miouk - Ftih Rahba, ouverture de la place
TTITLE5=Miouk - Mimouna
TTITLE6=Miouk - Gnaoui
TTITLE7=Final
EXTD=Collection Ocora - Radio France
EXTT0=
EXTT1=
EXTT2=
EXTT3=
EXTT4=
EXTT5=
EXTT6=
EXTT7=
PLAYORDER=
